<svg width="20" height="8" viewBox="0 0 20 8" fill="none" xmlns="http://www.w3.org/2000/svg">
<path d="M9.47518 5.99269C9.40918 6.11769 9.52918 6.07469 9.52918 6.07469C9.52918 6.07469 9.56218 6.05269 9.56218 6.05769C9.58918 5.97569 9.47518 5.99269 9.47518 5.99269ZM1.69318 3.04969C1.61718 3.03269 1.48018 3.14269 1.48018 3.14969C1.45918 3.28669 1.19618 3.45569 1.20218 3.45569C1.07618 3.53169 1.19618 3.50469 1.20218 3.50969C1.28918 3.50969 1.46918 3.30269 1.46418 3.30969C1.54018 3.22869 1.57318 3.23869 1.57318 3.23869C1.57318 3.23869 1.62218 3.19569 1.62818 3.20069C1.66618 3.17369 1.71518 3.15169 1.71018 3.16269C1.92818 3.06569 1.69318 3.04969 1.69318 3.04969ZM9.34418 6.10669C9.36018 5.99269 9.13118 6.03569 9.13118 6.03669C9.07618 6.03669 9.07618 6.06869 9.07618 6.06869C9.07618 6.06869 8.83018 6.15069 8.83018 6.15669C8.77618 6.17869 8.76518 6.19969 8.76518 6.19969C8.73419 6.22711 8.69664 6.24606 8.65618 6.25469L8.60618 6.29869C8.58941 6.30261 8.57302 6.30796 8.55718 6.31469C8.46613 6.38279 8.36945 6.44301 8.26818 6.49469L8.23018 6.52269C8.08218 6.56569 8.09818 6.59369 8.10418 6.59369C8.06397 6.6278 8.01741 6.65363 7.96718 6.66969C7.89618 6.68069 7.88018 6.69769 7.88018 6.69769C7.88018 6.69769 7.73818 6.78969 7.73318 6.78969C7.68478 6.81503 7.64087 6.84814 7.60318 6.88769C7.52118 6.93669 7.53818 6.94769 7.53818 6.94769L7.54918 7.01369L7.59218 6.99669C7.6872 7.01627 7.78546 7.01365 7.8793 6.98902C7.97314 6.96439 8.06002 6.91842 8.13318 6.85469C8.22018 6.81169 8.18218 6.78969 8.18818 6.78969C8.20284 6.78354 8.21614 6.77454 8.2273 6.76321C8.23846 6.75188 8.24725 6.73845 8.25318 6.72369C8.33018 6.72969 8.46618 6.63669 8.47218 6.64169C8.56518 6.55469 8.64118 6.48369 8.64118 6.48869C8.70953 6.43557 8.79051 6.40112 8.87618 6.38869C8.94646 6.37297 9.00968 6.33469 9.05618 6.27969C9.12218 6.20869 9.12718 6.23569 9.13818 6.24069C9.18218 6.18669 9.21518 6.21369 9.21518 6.21369C9.38718 6.13969 9.34418 6.10669 9.34418 6.10669ZM2.84618 2.50869C2.74606 2.57615 2.65899 2.66119 2.58918 2.75969C2.58918 2.76569 2.44718 2.92369 2.61618 2.85969C2.61118 2.85369 2.63318 2.84269 2.70418 2.83769C2.70918 2.83169 2.73718 2.84869 2.80418 2.75569C2.80418 2.74969 2.88618 2.61869 2.88618 2.61869C2.88618 2.61869 3.05918 2.39969 2.84618 2.50869ZM2.13018 2.39969L2.11418 2.35069C2.09925 2.33908 2.08275 2.32966 2.06518 2.32269C2.05908 2.31534 2.05143 2.30943 2.04279 2.30538C2.03415 2.30132 2.02472 2.29922 2.01518 2.29922C2.00563 2.29922 1.9962 2.30132 1.98756 2.30538C1.97892 2.30943 1.97128 2.31534 1.96518 2.32269C1.91055 2.36657 1.84401 2.39304 1.77418 2.39869L1.71418 2.42669C1.70122 2.4473 1.69017 2.46906 1.68118 2.49169C1.66091 2.52796 1.63333 2.55963 1.60018 2.58469C1.60018 2.58469 1.57218 2.65569 1.56718 2.65069C1.54176 2.67876 1.51962 2.70962 1.50118 2.74269L1.47918 2.78669C1.47918 2.78669 1.46818 2.83069 1.45718 2.82469C1.42425 2.853 1.40143 2.89126 1.39218 2.93369C1.39218 2.93369 1.40318 2.96169 1.27718 3.07069C1.24393 3.10186 1.21286 3.13527 1.18418 3.17069L1.12418 3.23669L1.05918 3.31269L1.00318 3.39369C0.94974 3.45722 0.900311 3.52401 0.855176 3.59369C0.842926 3.60336 0.831851 3.61444 0.822176 3.62669L0.784176 3.68669L0.762176 3.72969L0.724176 3.76869C0.724176 3.76869 0.746176 3.78469 0.833176 3.74069L0.866176 3.72969C0.901683 3.69225 0.924737 3.64475 0.932176 3.59369C0.932176 3.59869 0.970176 3.54969 0.970176 3.54969L1.01918 3.52769C1.01918 3.52769 1.28118 3.26569 1.33618 3.18969C1.34914 3.18427 1.36017 3.17508 1.36784 3.16331C1.37551 3.15154 1.37946 3.13773 1.37918 3.12369C1.37521 3.11518 1.37322 3.10588 1.37337 3.09649C1.37352 3.08711 1.3758 3.07787 1.38004 3.0695C1.38427 3.06112 1.39036 3.05381 1.39783 3.04813C1.4053 3.04244 1.41397 3.03853 1.42318 3.03669C1.50091 2.99875 1.57925 2.96208 1.65818 2.92669C1.75936 2.91195 1.8551 2.87161 1.9363 2.80948C2.01751 2.74735 2.08149 2.66549 2.12218 2.57169C2.14354 2.51676 2.14635 2.45636 2.13018 2.39969ZM7.75418 5.69969L7.81418 5.63869C7.86918 5.60669 7.85218 5.58969 7.85218 5.58969C7.82518 5.56769 7.80918 5.51369 7.80318 5.51369C7.80683 5.49184 7.80683 5.46954 7.80318 5.44769C7.80318 5.44769 7.76518 5.45369 7.77018 5.44769C7.75918 5.39369 7.68818 5.45369 7.68818 5.45369C7.51418 5.51369 7.62818 5.54069 7.62318 5.54669C7.67218 5.58969 7.64518 5.60069 7.63918 5.60069C7.63563 5.61525 7.63767 5.63062 7.64489 5.64376C7.6521 5.6569 7.66398 5.66686 7.67818 5.67169C7.73818 5.72669 7.75418 5.69969 7.75418 5.69969ZM10.9762 6.21669C10.9762 6.21669 10.9622 6.15869 10.9292 6.15169C10.9142 6.15169 10.8972 6.15169 10.8802 6.17569C10.8413 6.21878 10.7935 6.2529 10.7402 6.27569C10.7102 6.28302 10.6932 6.29535 10.6892 6.31269C10.6852 6.33069 10.6982 6.35202 10.7282 6.37669H10.7452C10.7739 6.38871 10.8051 6.39385 10.8362 6.39169H10.8462C10.8592 6.39169 10.8822 6.39169 10.9212 6.34669C10.9419 6.33282 10.9582 6.31329 10.9681 6.29041C10.9781 6.26754 10.9812 6.2423 10.9772 6.21769L10.9762 6.21669ZM7.89618 5.34969C7.96118 5.37669 7.95118 5.40969 7.95118 5.40969L7.98318 5.37169C8.01118 5.32269 8.02718 5.34469 8.03218 5.34469C8.13218 5.34469 8.14718 5.30569 8.14718 5.30569C8.23518 5.30069 8.21318 5.21869 8.21318 5.22969C8.21318 5.15269 8.13618 5.17469 8.12518 5.16969C8.08563 5.15776 8.04448 5.15202 8.00318 5.15269C7.87718 5.13069 7.86618 5.20169 7.86618 5.20169C7.82818 5.22969 7.85018 5.28369 7.85018 5.28369C7.83018 5.36669 7.90318 5.33869 7.89618 5.34969ZM5.19218 5.61169C5.18739 5.59449 5.18033 5.57801 5.17118 5.56269C5.15308 5.54559 5.13292 5.53081 5.11118 5.51869C5.04418 5.46269 5.02718 5.49169 5.02718 5.49669C4.99102 5.48224 4.95296 5.47314 4.91418 5.46969C4.87018 5.45369 4.88118 5.51369 4.89218 5.51369C4.93018 5.50769 4.91418 5.55669 4.90318 5.54569C4.89818 5.58969 4.87618 5.61169 4.87018 5.60569C4.78818 5.61169 4.87018 5.71569 4.87018 5.71569C4.89718 5.74269 4.89718 5.75869 4.89718 5.75869L4.93018 5.77569L4.97418 5.80769C4.99885 5.82229 5.027 5.83 5.05568 5.83C5.08435 5.83 5.1125 5.82229 5.13718 5.80769L5.17018 5.81369L5.19218 5.75369L5.21918 5.72069V5.66669C5.22018 5.59569 5.19218 5.61769 5.19218 5.61169ZM5.28518 5.05469C5.30419 5.0377 5.31599 5.01409 5.31818 4.98869C5.3266 4.95294 5.34151 4.91905 5.36218 4.88869C5.41118 4.83469 5.17118 4.70269 5.17118 4.70269C5.07818 4.58869 5.07118 4.75269 5.07118 4.75269L5.04318 4.82369L5.02118 4.85669L5.00318 4.98769C4.96718 5.08769 5.00318 5.08169 5.00818 5.07569C5.01918 5.12969 5.00818 5.16169 5.00818 5.16169C5.00968 5.17695 5.01496 5.19159 5.02356 5.20428C5.03216 5.21698 5.04379 5.22732 5.0574 5.23438C5.07102 5.24143 5.08618 5.24497 5.1015 5.24468C5.11683 5.24438 5.13185 5.24026 5.14518 5.23269C5.14518 5.19469 5.19918 5.18969 5.19918 5.18969C5.19918 5.12869 5.22118 5.12369 5.23218 5.11869C5.25818 5.05969 5.28518 5.05469 5.28518 5.05469ZM19.9842 1.16769C19.9783 1.12852 19.9631 1.09132 19.94 1.05916C19.9169 1.02699 19.8864 1.00078 19.8512 0.982688C19.8015 0.965737 19.7485 0.960527 19.6965 0.967467C19.6444 0.974406 19.5947 0.993308 19.5512 1.02269L19.4802 1.04469C19.1163 1.18254 18.7362 1.27262 18.3492 1.31269H18.2972C17.8055 1.27977 17.3193 1.19017 16.8482 1.04569L16.8122 1.03569C16.555 0.924599 16.2756 0.874384 15.9958 0.888953C15.7161 0.903523 15.4434 0.982485 15.1992 1.11969C15.0342 1.25794 14.9042 1.43311 14.8196 1.631C14.735 1.82889 14.6982 2.04393 14.7122 2.25869C14.507 2.27632 14.3011 2.23319 14.1202 2.13469C14.0391 2.07999 13.956 2.02829 13.8712 1.97969C13.6642 1.85569 13.3812 1.68569 13.2042 1.55969L13.1752 1.53869C12.889 1.33401 12.5711 1.17791 12.2342 1.07669C11.6159 0.890547 10.9629 0.849483 10.3262 0.956688C10.2982 0.956688 10.2522 0.965688 10.1512 0.981688C9.97018 1.01069 9.66718 1.05969 9.39518 1.08769C9.35539 1.08798 9.31565 1.09066 9.27618 1.09569C8.89718 1.13484 8.51588 1.14687 8.13518 1.13169C8.1152 1.13019 8.09515 1.13019 8.07518 1.13169C7.87811 1.14985 7.68009 1.10913 7.50618 1.01469L7.48118 0.987687C7.45851 0.963021 7.44751 0.946688 7.44818 0.938688C7.44918 0.930688 7.45718 0.921688 7.49018 0.903688L7.50018 0.897688L7.52718 0.887688C7.56033 0.856914 7.58068 0.814786 7.58418 0.769688C7.58418 0.716688 7.55718 0.626688 7.35518 0.616688C7.195 0.602551 7.03378 0.627249 6.88518 0.688688C6.87495 0.684237 6.8665 0.676494 6.86118 0.666688C6.85503 0.632026 6.86217 0.596321 6.88118 0.566688C6.94006 0.51441 6.99365 0.456464 7.04118 0.393687C7.09718 0.315687 7.14118 0.202687 7.10318 0.136687C7.04118 0.0286875 6.85318 -0.0153125 6.53018 0.0046875C6.0754 0.0572465 5.62936 0.168506 5.20318 0.335688C5.16574 0.351971 5.12488 0.358837 5.08418 0.355687C5.09449 0.330938 5.09798 0.303878 5.09429 0.277321C5.0906 0.250764 5.07985 0.225682 5.06318 0.204687C4.98418 0.104687 4.78218 0.104687 4.42918 0.195687L4.37018 0.210688C4.31018 0.233688 4.19818 0.280687 3.97018 0.374687H3.95918V0.344688C3.94827 0.279976 3.91235 0.222149 3.85918 0.183687C3.8111 0.153082 3.75302 0.142327 3.69718 0.153688C3.46005 0.22732 3.23298 0.330106 3.02118 0.459687C2.92118 0.519687 2.83818 0.573688 2.78818 0.606688L2.74318 0.637688V0.631687L2.69218 0.675688C2.69023 0.677676 2.68789 0.679236 2.68531 0.680269C2.68273 0.681303 2.67996 0.681786 2.67718 0.681688C2.63118 0.671688 2.56018 0.562688 2.53418 0.505688C2.51627 0.436567 2.47382 0.376327 2.41475 0.336211C2.35568 0.296096 2.28403 0.278848 2.21318 0.287687C1.77918 0.479687 1.82218 1.07369 1.83618 1.19669C1.83758 1.21032 1.83758 1.22406 1.83618 1.23769C1.6884 1.31417 1.54725 1.4028 1.41418 1.50269C1.21208 1.62207 1.06326 1.81417 0.998176 2.03969V2.06869C0.988732 2.20421 0.948733 2.33583 0.881176 2.45369C0.617773 2.85147 0.357764 3.25148 0.101176 3.65369C0.0411221 3.72182 0.00571189 3.80816 0.000633832 3.89884C-0.00444423 3.98952 0.0211045 4.07928 0.073176 4.15369C0.120365 4.23185 0.149094 4.31975 0.157176 4.41069V4.42669C0.173327 4.48038 0.201159 4.52983 0.238676 4.5715C0.276194 4.61317 0.322466 4.64601 0.374176 4.66769C0.423695 4.69255 0.477839 4.70685 0.533176 4.70969C0.60169 4.71479 0.669079 4.72995 0.733176 4.75469H0.748176C0.869169 4.74083 0.987838 4.71125 1.10118 4.66669C1.15173 4.64828 1.19702 4.6178 1.2331 4.57788C1.26918 4.53797 1.29495 4.48984 1.30818 4.43769V4.42969C1.44787 4.13492 1.6531 3.876 1.90818 3.67269L1.96918 3.63169C2.06918 3.56969 2.26918 3.44669 2.44118 3.34669C2.75305 3.17722 3.03239 2.95376 3.26618 2.68669L3.33418 2.71869C3.57647 2.81828 3.80717 2.94403 4.02218 3.09369C4.34789 3.28065 4.59746 3.57624 4.72718 3.92869L4.73918 3.98469C4.73739 4.13223 4.71928 4.27913 4.68518 4.42269C4.63118 4.70669 4.54618 5.12969 4.52418 5.18269C4.47068 5.31371 4.45074 5.45601 4.46618 5.59669V5.61069C4.50076 5.79595 4.56136 5.97539 4.64618 6.14369C4.65518 6.16769 4.70118 6.25569 4.87818 6.24969H4.90518C4.94708 6.24884 4.98858 6.24142 5.02818 6.22769C5.06918 6.21769 5.51818 6.13869 5.64018 6.12769H5.65018C5.95275 6.08372 6.26095 6.09798 6.55818 6.16969L6.59718 6.19369C6.65418 6.22569 6.77318 6.29369 6.79718 6.39369C6.82348 6.44921 6.86433 6.49656 6.91539 6.53072C6.96646 6.56488 7.02582 6.58457 7.08718 6.58769C7.10618 6.59469 7.17518 6.61969 7.28718 6.65369C7.29725 6.65562 7.3062 6.66135 7.31218 6.66969C7.31218 6.66969 7.31218 6.68369 7.30018 6.70269L7.28618 6.71669C7.21388 6.78753 7.12817 6.84321 7.03407 6.88047C6.93997 6.91774 6.83937 6.93583 6.73818 6.93369C6.70846 6.93339 6.67925 6.94137 6.65382 6.95673C6.62838 6.9721 6.60773 6.99424 6.59418 7.02069C6.48418 7.12069 6.30718 7.31169 6.32618 7.46269C6.32962 7.49077 6.34002 7.51756 6.35644 7.54061C6.37285 7.56366 6.39476 7.58225 6.42018 7.59469C6.50856 7.60753 6.59797 7.61188 6.68718 7.60769C6.96418 7.60769 7.36918 7.59369 7.46718 7.57869C7.47597 7.57786 7.48448 7.5751 7.49208 7.57061C7.49969 7.56611 7.50621 7.55999 7.51118 7.55269H7.52018V7.52969C7.52825 7.51722 7.53964 7.50725 7.55306 7.5009C7.56649 7.49454 7.58142 7.49204 7.59618 7.49369H7.82318C7.86607 7.50222 7.91032 7.50128 7.95282 7.49091C7.99531 7.48055 8.03502 7.46102 8.06918 7.43369L8.08118 7.42469C8.13762 7.36938 8.20763 7.32991 8.28416 7.31025C8.3607 7.29059 8.44107 7.29143 8.51718 7.31269C8.65797 7.34346 8.78932 7.40759 8.90018 7.49969C8.96896 7.53733 9.04499 7.55983 9.12318 7.56569C9.13318 7.56569 9.26818 7.57869 9.35618 7.58869C9.37267 7.59087 9.38944 7.5889 9.40499 7.58297C9.42053 7.57703 9.43434 7.56731 9.44518 7.55469L9.46718 7.52969C9.60931 7.37026 9.74284 7.20336 9.86718 7.02969C9.88392 7.02044 9.89859 7.00786 9.91029 6.99273C9.92198 6.97759 9.93045 6.96022 9.93518 6.94169C9.93518 6.91069 9.93518 6.85369 9.83518 6.82369C9.64618 6.75637 9.44977 6.71205 9.25018 6.69169C9.40805 6.57979 9.58491 6.49745 9.77218 6.44869H9.79618C9.82653 6.44585 9.85706 6.45175 9.88418 6.46569L9.90918 6.47169L9.96218 6.48569C10.2097 6.55732 10.4635 6.60488 10.7202 6.62769C10.8036 6.66384 10.8964 6.67259 10.9852 6.65269C11.0287 6.6425 11.0686 6.62034 11.1002 6.58871C11.1318 6.55708 11.154 6.51724 11.1642 6.47369C11.241 6.27238 11.3457 6.08286 11.4752 5.91069L11.5002 5.88069C11.6833 5.62048 11.932 5.41345 12.2212 5.28069C12.4216 5.21614 12.6147 5.13067 12.7972 5.02569C13.2817 4.64777 13.6797 4.17038 13.9642 3.62569C14.0105 3.52274 14.0873 3.43652 14.1843 3.37874C14.2812 3.32096 14.3936 3.2944 14.5062 3.30269L15.3872 3.29169C15.5115 3.32173 15.6422 3.31057 15.7596 3.25989C15.877 3.20921 15.9748 3.12175 16.0382 3.01069C16.1272 2.81669 16.3312 2.49669 16.5382 2.52769C16.7986 2.56341 17.0548 2.6247 17.3032 2.71069C17.5548 2.75681 17.8095 2.78355 18.0652 2.79069C18.5104 2.83267 18.9568 2.72423 19.3332 2.48269C19.5726 2.36722 19.7666 2.17518 19.8845 1.93699C20.0024 1.69879 20.0375 1.42807 19.9842 1.16769ZM19.3272 2.42369C18.9596 2.65225 18.5287 2.75737 18.0972 2.72369C17.8454 2.71793 17.5946 2.6915 17.3472 2.64469C17.0943 2.55712 16.8334 2.49515 16.5682 2.45969C16.4395 2.44102 16.3088 2.51969 16.1762 2.69569C16.1116 2.78409 16.0556 2.87853 16.0092 2.97769C15.9515 3.07689 15.8632 3.15469 15.7575 3.19942C15.6519 3.24414 15.5345 3.25335 15.4232 3.22569L14.5372 3.23669C14.4124 3.2278 14.288 3.25748 14.1806 3.32169C14.0733 3.38591 13.9883 3.48156 13.9372 3.59569C13.6566 4.13267 13.2657 4.60431 12.7902 4.97969C12.6124 5.0809 12.4248 5.16366 12.2302 5.22669C11.93 5.36425 11.6715 5.57886 11.4812 5.84869L11.4592 5.87469C11.3251 6.05373 11.2167 6.25064 11.1372 6.45969C11.1287 6.49198 11.1118 6.52146 11.0883 6.54516C11.0648 6.56886 11.0354 6.58595 11.0032 6.59469C10.9271 6.61028 10.848 6.60154 10.7772 6.56969H10.7652C10.5109 6.54709 10.2595 6.50021 10.0142 6.42969L9.96018 6.41569L9.93818 6.41069C9.9025 6.39219 9.86207 6.38487 9.82218 6.38969H9.80818C9.60705 6.43808 9.41721 6.52502 9.24918 6.64569L9.22218 6.66169C9.21367 6.66652 9.20677 6.67373 9.20233 6.68244C9.19789 6.69115 9.1961 6.70097 9.19718 6.71069C9.19875 6.71967 9.20275 6.72805 9.20874 6.73493C9.21473 6.7418 9.22249 6.74691 9.23118 6.74969H9.23918C9.44937 6.76611 9.65649 6.81015 9.85518 6.88069C9.89651 6.89402 9.91551 6.91102 9.91218 6.93169C9.90861 6.94205 9.90295 6.95157 9.89556 6.95965C9.88816 6.96774 9.87918 6.97422 9.86918 6.97869H9.86118L9.85618 6.98669C9.73366 7.16173 9.60006 7.32874 9.45618 7.48669L9.43218 7.51469C9.43218 7.51969 9.41318 7.52269 9.40118 7.52069L9.16618 7.49769C9.09632 7.49323 9.02819 7.47415 8.96618 7.44169C8.84872 7.34362 8.70951 7.27504 8.56018 7.24169C8.47453 7.21674 8.38384 7.21469 8.29716 7.23575C8.21048 7.2568 8.13083 7.30023 8.06618 7.36169L8.05718 7.36869C8.02956 7.39118 7.99729 7.40725 7.9627 7.41573C7.92811 7.4242 7.89206 7.42487 7.85718 7.41769H7.59718C7.5684 7.41546 7.53966 7.42251 7.51519 7.4378C7.49071 7.4531 7.47178 7.47584 7.46118 7.50269C7.12419 7.52904 6.78599 7.53638 6.44818 7.52469C6.43188 7.51679 6.41779 7.50499 6.40714 7.49034C6.3965 7.47568 6.38964 7.45863 6.38718 7.44069C6.37618 7.35069 6.47018 7.20369 6.63918 7.04869C6.68718 6.98069 6.71918 6.98469 6.73018 6.98569H6.74318C6.85266 6.98874 6.96161 6.96929 7.06327 6.92852C7.16493 6.88775 7.25714 6.82655 7.33418 6.74869L7.34518 6.73769C7.35581 6.72517 7.36319 6.71023 7.36668 6.69419C7.37017 6.67814 7.36965 6.66149 7.36518 6.64569C7.35883 6.63267 7.34972 6.6212 7.3385 6.61204C7.32728 6.60289 7.3142 6.59629 7.30018 6.59269C7.17918 6.55769 7.11118 6.53169 7.10018 6.52769C7.05368 6.52507 7.00857 6.5109 6.96894 6.48645C6.9293 6.462 6.89639 6.42806 6.87318 6.38769C6.83017 6.28126 6.74727 6.19585 6.64218 6.14969L6.60318 6.12269C6.37961 6.05801 6.14607 6.03497 5.91418 6.05469H5.92318L5.84718 6.06169C5.76718 6.06669 5.70118 6.07369 5.66218 6.07869H5.65018C5.52918 6.08969 5.06718 6.16969 5.02518 6.17869C4.99022 6.18995 4.95388 6.19634 4.91718 6.19769H4.89218C4.74518 6.20269 4.72118 6.13369 4.72018 6.13069C4.63927 5.96737 4.58106 5.79377 4.54718 5.61469V5.60069C4.53472 5.47209 4.55359 5.3424 4.60218 5.22269C4.63418 5.14169 4.76518 4.45769 4.76618 4.45169C4.80181 4.30296 4.82026 4.15063 4.82118 3.99769L4.80318 3.92369C4.66218 3.24769 3.50318 2.71069 3.37018 2.66869C3.33765 2.65255 3.30427 2.63819 3.27018 2.62569H3.25418L3.23418 2.64769C3.00646 2.91434 2.73067 3.13585 2.42118 3.30069C2.25118 3.40069 2.04718 3.52469 1.94718 3.58769L1.88518 3.62869C1.62025 3.84002 1.40772 4.1097 1.26418 4.41669V4.43169C1.25291 4.47439 1.23133 4.51368 1.20135 4.54611C1.17136 4.57854 1.13387 4.60312 1.09218 4.61769C0.991222 4.65725 0.886275 4.68575 0.779176 4.70269H0.772176C0.702478 4.67633 0.629439 4.65983 0.555176 4.65369C0.510697 4.64954 0.466975 4.63945 0.425176 4.62369C0.381323 4.6058 0.341835 4.57867 0.309395 4.54416C0.276955 4.50965 0.252325 4.46856 0.237176 4.42369L0.232176 4.41169C0.221393 4.31204 0.189337 4.21587 0.138176 4.12969C0.0950861 4.06533 0.0745575 3.98851 0.0798053 3.91124C0.085053 3.83397 0.115781 3.76062 0.167176 3.70269C0.173176 3.69269 0.877176 2.60269 0.947176 2.50269C1.02504 2.37329 1.06747 2.22568 1.07018 2.07469V2.06169C1.12518 1.70369 1.80818 1.34569 1.88618 1.30569H1.89618V1.29569C1.90495 1.26926 1.90667 1.24099 1.90118 1.21369C1.88818 1.10369 1.84518 0.545687 2.23818 0.367687C2.29461 0.361116 2.35148 0.375666 2.39783 0.408532C2.44417 0.441399 2.47671 0.490256 2.48918 0.545688C2.48918 0.545688 2.57918 0.735687 2.67518 0.756687H2.69318V0.784687L2.74518 0.734688C2.77335 0.712115 2.80273 0.691083 2.83318 0.671687C2.88218 0.638687 2.96218 0.585688 3.06318 0.526688C3.27055 0.400302 3.49251 0.299564 3.72418 0.226688C3.76359 0.219489 3.80427 0.22734 3.83818 0.248688C3.87593 0.280034 3.90085 0.324166 3.90818 0.372688V0.384688V0.377688C3.90818 0.409688 3.90818 0.425687 3.92618 0.435687C3.94351 0.446354 3.96984 0.446354 4.00518 0.435687H4.00318C4.30918 0.307687 4.41218 0.264688 4.44418 0.257688L4.50318 0.239688C4.78718 0.171021 4.95784 0.171021 5.01518 0.239688C5.02536 0.254083 5.03156 0.270914 5.03314 0.288476C5.03472 0.306038 5.03163 0.323706 5.02418 0.339688V0.353687C5.02447 0.365075 5.02754 0.376219 5.03311 0.386152C5.03869 0.396086 5.04661 0.404508 5.05618 0.410688C5.10318 0.437688 5.19918 0.410687 5.22818 0.395687C5.64849 0.230079 6.08792 0.117869 6.53618 0.0616877C6.90218 0.0396877 7.01818 0.104688 7.05218 0.161688C7.07118 0.194688 7.04418 0.281688 6.99318 0.351688C6.9488 0.411865 6.89781 0.466876 6.84118 0.515688H6.83518V0.521688C6.81804 0.545342 6.8063 0.572462 6.80077 0.60114C6.79525 0.629819 6.79607 0.65936 6.80318 0.687688C6.80991 0.702265 6.81976 0.71519 6.83203 0.725556C6.84429 0.735921 6.85868 0.743475 6.87418 0.747688H6.89518C7.03508 0.687768 7.18745 0.662717 7.33918 0.674688H7.34718C7.42818 0.674688 7.52318 0.696688 7.52118 0.764688C7.51929 0.78245 7.51347 0.799568 7.50412 0.814792C7.49478 0.830016 7.48216 0.842964 7.46718 0.852688L7.42518 0.869687V0.875688C7.40582 0.889453 7.39199 0.909659 7.38618 0.932688C7.37918 0.973688 7.41418 1.01169 7.43518 1.03269L7.44718 1.04769C7.63272 1.1527 7.84583 1.19874 8.05818 1.17969C8.07445 1.17768 8.0909 1.17768 8.10718 1.17969C8.49154 1.1954 8.87654 1.18337 9.25918 1.14369C9.29567 1.139 9.33239 1.13633 9.36918 1.13569H9.37518C9.65018 1.10769 9.95518 1.05869 10.1382 1.02869C10.2268 1.01402 10.2832 1.00602 10.3072 1.00469C11.2808 0.815225 12.2897 1.02026 13.1122 1.57469L13.1422 1.59569C13.3202 1.72369 13.6052 1.89569 13.8122 2.01869C13.9792 2.11869 14.0372 2.15369 14.0572 2.17069C14.4472 2.32469 14.6572 2.32869 14.7242 2.28569L14.7372 2.27669V2.26069C14.7215 2.05247 14.755 1.84348 14.8351 1.65064C14.9152 1.4578 15.0396 1.28653 15.1982 1.15069C15.4351 1.01954 15.6989 0.944491 15.9693 0.931316C16.2398 0.91814 16.5097 0.967189 16.7582 1.07469L16.7952 1.08569C17.271 1.23233 17.7623 1.32294 18.2592 1.35569H18.3042C18.6996 1.31567 19.0882 1.22458 19.4602 1.08469C19.4935 1.07335 19.5172 1.06602 19.5312 1.06269C19.5673 1.03757 19.6087 1.021 19.6522 1.01424C19.6957 1.00749 19.7401 1.01072 19.7822 1.02369C19.8088 1.03761 19.8318 1.05765 19.8491 1.08216C19.8665 1.10667 19.8778 1.13495 19.8822 1.16469C19.9412 1.40637 19.9187 1.66076 19.8184 1.88839C19.718 2.11603 19.5454 2.30419 19.3272 2.42369ZM0.683176 3.84669C0.676851 3.85267 0.671813 3.85988 0.66837 3.86787C0.664926 3.87587 0.66315 3.88448 0.66315 3.89319C0.66315 3.90189 0.664926 3.91051 0.66837 3.9185C0.671813 3.9265 0.676851 3.93371 0.683176 3.93969C0.683176 4.03269 0.759176 3.89069 0.759176 3.89069C0.819176 3.79269 0.683176 3.84669 0.683176 3.84669ZM19.7962 1.07369C19.7581 1.06379 19.7183 1.06234 19.6796 1.06942C19.6409 1.0765 19.6043 1.09195 19.5722 1.11469L19.4912 1.14069C19.1151 1.2845 18.7211 1.37602 18.3202 1.41269H18.2762C17.7774 1.37918 17.2841 1.28825 16.8062 1.14169L16.7682 1.13069C16.5252 1.02476 16.2612 0.97607 15.9964 0.988381C15.7316 1.00069 15.4733 1.07367 15.2412 1.20169C15.0847 1.33637 14.9625 1.50639 14.8848 1.69767C14.807 1.88896 14.776 2.09601 14.7942 2.30169C14.7936 2.31187 14.7895 2.32152 14.7825 2.329C14.7756 2.33648 14.7663 2.34132 14.7562 2.34269C14.7052 2.37269 14.5632 2.40669 14.0622 2.22269C13.9756 2.17422 13.8915 2.12149 13.8102 2.06469C13.6102 1.92269 13.3162 1.76469 13.1362 1.63969L13.1192 1.62769C12.7152 1.35303 12.2609 1.16107 11.7824 1.0629C11.3039 0.964722 10.8106 0.962272 10.3312 1.05569L10.1592 1.08069C9.97518 1.10969 9.66618 1.15969 9.39018 1.18769C9.39018 1.18769 9.31918 1.18769 9.27618 1.19469C8.89158 1.23499 8.50456 1.24736 8.11818 1.23169H8.07018C7.84798 1.25192 7.62506 1.20153 7.43318 1.08769L7.41518 1.06569C7.39599 1.04986 7.38076 1.02978 7.37069 1.00704C7.36063 0.984302 7.356 0.959529 7.35718 0.934688C7.36356 0.911955 7.37522 0.891049 7.3912 0.873673C7.40719 0.856296 7.42705 0.842938 7.44918 0.834687L7.46118 0.828688C7.47318 0.814688 7.49218 0.787688 7.48618 0.767688C7.48018 0.747688 7.46518 0.725687 7.34318 0.721687L7.31118 0.707688C7.1744 0.707272 7.03875 0.732368 6.91118 0.781688L6.87018 0.787687C6.82784 0.773686 6.7922 0.744465 6.77018 0.705688C6.72718 0.649688 6.81718 0.495688 6.81718 0.495688C6.85918 0.462688 7.03618 0.274688 7.01718 0.210688C7.01718 0.210688 7.01718 0.177688 7.00618 0.166688C6.99518 0.155688 6.88318 0.0806876 6.53518 0.101688C6.09218 0.160003 5.65776 0.271127 5.24118 0.432688C5.20278 0.451324 5.16084 0.461551 5.11818 0.462688C5.10239 0.465456 5.08619 0.464741 5.07071 0.460595C5.05524 0.456449 5.04085 0.448972 5.02856 0.438685C5.01628 0.428398 5.00638 0.41555 4.99958 0.401041C4.99278 0.386532 4.98923 0.370713 4.98918 0.354688V0.338688C4.99551 0.327929 4.99885 0.315671 4.99885 0.303188C4.99885 0.290704 4.99551 0.278447 4.98918 0.267688C4.96618 0.239688 4.86518 0.185688 4.45218 0.292688C4.42018 0.302688 4.17018 0.406688 4.01618 0.470688C3.94618 0.500688 3.91018 0.481687 3.89218 0.459687C3.87671 0.439434 3.86955 0.414038 3.87218 0.388687C3.87083 0.366153 3.865 0.344113 3.85505 0.323854C3.84509 0.303594 3.83119 0.28552 3.81418 0.270687C3.78868 0.254378 3.75796 0.248306 3.72818 0.253688C3.38349 0.369376 3.05893 0.538066 2.76618 0.753688C2.74674 0.771059 2.72217 0.781627 2.69618 0.783792C2.6702 0.785957 2.64422 0.779602 2.62218 0.765688C2.55013 0.709867 2.49309 0.637016 2.45618 0.553687C2.40318 0.387687 2.29318 0.387688 2.24618 0.387688C1.89118 0.548688 1.91918 1.04669 1.93618 1.19469C1.94111 1.21512 1.94197 1.23632 1.93871 1.25708C1.93545 1.27784 1.92813 1.29775 1.91718 1.31569L1.90718 1.32369C1.89918 1.32369 1.15818 1.70169 1.10718 2.05569C1.10659 2.2162 1.06309 2.37364 0.981176 2.51169C0.723098 2.9001 0.467426 3.29011 0.214176 3.68169L0.201176 3.70869C0.156106 3.76066 0.128407 3.82543 0.121952 3.89392C0.115498 3.96241 0.13061 4.03121 0.165176 4.09069C0.223069 4.18123 0.259339 4.28388 0.271176 4.39069L0.276176 4.40469C0.290027 4.44591 0.312673 4.48362 0.342545 4.51522C0.372417 4.54682 0.4088 4.57154 0.449176 4.58769H0.459176C0.494415 4.59696 0.530135 4.60431 0.566176 4.60969C0.644313 4.61576 0.721133 4.63328 0.794176 4.66169C0.89269 4.64812 0.989322 4.62329 1.08218 4.58769C1.11855 4.57458 1.15138 4.55323 1.1781 4.52529C1.20482 4.49735 1.2247 4.4636 1.23618 4.42669C1.28626 4.31086 1.3472 4.20003 1.41818 4.09569C1.538 3.90456 1.69269 3.73766 1.87418 3.60369C2.0476 3.48433 2.22718 3.37417 2.41218 3.27369C2.71495 3.10862 2.98586 2.89088 3.21218 2.63069L3.22118 2.61969C3.26718 2.56269 3.44618 2.66169 3.55818 2.71969C3.82618 2.84969 4.70818 3.31969 4.83718 3.91969C4.86147 4.09952 4.84784 4.28244 4.79718 4.45669C4.79718 4.48569 4.66518 5.14969 4.63118 5.23369C4.58768 5.34633 4.57024 5.46735 4.58018 5.58769V5.59969C4.61007 5.77992 4.66883 5.95415 4.75418 6.11569C4.75418 6.11569 4.77918 6.16469 4.88918 6.16169H4.91718C4.95118 6.16206 4.98499 6.15665 5.01718 6.14569C5.10784 6.12191 5.20007 6.10453 5.29318 6.09369C5.35818 6.08269 5.57518 6.04669 5.65518 6.03969C5.97704 5.99141 6.30536 6.0091 6.62018 6.09169L6.64118 6.09969V6.10669L6.66018 6.11769C6.71655 6.14298 6.76738 6.17914 6.80976 6.2241C6.85214 6.26905 6.88525 6.32192 6.90718 6.37969C6.92887 6.41388 6.95824 6.44254 6.99297 6.46337C7.02769 6.48421 7.0668 6.49664 7.10718 6.49969H7.11518C7.18051 6.52369 7.24718 6.54535 7.31518 6.56469C7.33452 6.57007 7.35248 6.57956 7.36784 6.5925C7.3832 6.60544 7.39559 6.62153 7.40418 6.63969C7.41044 6.66161 7.41125 6.68473 7.40655 6.70704C7.40184 6.72934 7.39176 6.75016 7.37718 6.76769L7.36118 6.79069C7.28158 6.86977 7.18695 6.9321 7.08287 6.97401C6.97879 7.01592 6.86736 7.03655 6.75518 7.03469C6.74893 7.03621 6.74242 7.03621 6.73618 7.03469C6.71918 7.03469 6.69718 7.04769 6.67218 7.08469L6.66618 7.09269C6.54818 7.20169 6.41418 7.36169 6.42618 7.45469C6.42772 7.4666 6.4323 7.47792 6.43948 7.48755C6.44666 7.49719 6.4562 7.50481 6.46718 7.50969C6.53718 7.51469 7.22018 7.51769 7.43818 7.48969C7.45543 7.46181 7.47959 7.43888 7.50833 7.42311C7.53707 7.40733 7.5694 7.39927 7.60218 7.39969H7.84718C7.92718 7.43269 8.02618 7.35069 8.02818 7.34869C8.09733 7.28346 8.18248 7.23765 8.27501 7.21587C8.36755 7.1941 8.46419 7.19714 8.55518 7.22469C8.70747 7.25645 8.84963 7.32513 8.96918 7.42469C9.02229 7.45429 9.08146 7.47139 9.14218 7.47469L9.37318 7.49569L9.39118 7.48969C9.53924 7.32548 9.67812 7.15322 9.80718 6.97369L9.81618 6.95569H9.82818C9.83718 6.95569 9.85118 6.92969 9.81918 6.92069C9.62058 6.84947 9.41346 6.80475 9.20318 6.78769C9.20318 6.78769 9.10918 6.76669 9.10318 6.73069C9.09718 6.69469 9.13618 6.66069 9.17618 6.63069L9.20618 6.61269C9.38232 6.49447 9.57701 6.40659 9.78218 6.35269H9.80318C9.84771 6.34774 9.89275 6.35536 9.93318 6.37469C9.94718 6.37469 9.96818 6.38269 10.0072 6.39269C10.2518 6.46308 10.5026 6.50996 10.7562 6.53269L10.7762 6.53969C10.8395 6.56535 10.9088 6.57297 10.9762 6.56169C11.0026 6.55165 11.0266 6.53612 11.0466 6.51613C11.0666 6.49613 11.0821 6.47212 11.0922 6.44569C11.1726 6.23356 11.2827 6.03391 11.4192 5.85269L11.4442 5.82269C11.6399 5.54692 11.9057 5.3284 12.2142 5.18969C12.4036 5.12498 12.587 5.04366 12.7622 4.94669C13.2313 4.57461 13.6175 4.10867 13.8962 3.57869C13.9508 3.45949 14.0402 3.3596 14.1526 3.29214C14.2651 3.22468 14.3953 3.1928 14.5262 3.20069L15.4192 3.19069C15.5278 3.21991 15.6431 3.21057 15.7456 3.16425C15.8481 3.11794 15.9314 3.03751 15.9812 2.93669C15.9962 2.89769 16.2042 2.37169 16.5612 2.42469C16.8261 2.46598 17.0873 2.52851 17.3422 2.61169C17.9972 2.78176 18.6919 2.70524 19.2942 2.39669C19.5095 2.28598 19.6827 2.10793 19.7874 1.88967C19.8921 1.6714 19.9226 1.42489 19.8742 1.18769C19.8705 1.16407 19.8616 1.14156 19.8481 1.12184C19.8346 1.10211 19.8169 1.08566 19.7962 1.07369ZM3.81018 0.773688C4.11404 0.580241 4.44595 0.434862 4.79418 0.342688C4.89418 0.325688 4.90318 0.336688 4.90318 0.342688C4.98018 0.396688 4.83218 0.478687 4.82118 0.473687C4.70112 0.534754 4.58755 0.607791 4.48218 0.691688C4.36218 0.779688 4.51018 0.762688 4.51018 0.762688C4.51018 0.762688 4.81618 0.779687 4.81018 0.784687C4.94217 0.7588 5.06935 0.712584 5.18718 0.647688C6.48218 0.0366881 6.82618 0.216688 6.82018 0.221688C6.89718 0.243688 6.78718 0.292688 6.78718 0.292688C6.73223 0.353039 6.6701 0.406436 6.60218 0.451688C6.54568 0.494029 6.47983 0.522154 6.41018 0.533688C6.33918 0.549688 6.34518 0.555688 6.34518 0.555688C6.34518 0.555688 6.31818 0.615688 6.31818 0.604688C6.31818 0.653688 6.25218 0.647688 6.25218 0.642688C6.11056 0.639413 5.96965 0.663521 5.83718 0.713688C5.73718 0.789688 5.83718 0.762687 5.83718 0.768687C5.89987 0.750865 5.9665 0.752609 6.02818 0.773688C6.03764 0.773767 6.04689 0.776532 6.05485 0.781661C6.06281 0.786791 6.06914 0.794074 6.07312 0.802663C6.0771 0.811253 6.07856 0.820795 6.07733 0.830182C6.0761 0.839569 6.07224 0.848413 6.06618 0.855687C6.01718 0.926687 6.09318 0.909688 6.08818 0.915688C6.15918 0.931688 6.18118 0.964687 6.17518 0.959687C6.18384 0.971169 6.18902 0.9849 6.1901 0.999243C6.19118 1.01359 6.18811 1.02794 6.18126 1.04058C6.17441 1.05323 6.16406 1.06364 6.15146 1.07058C6.13886 1.07751 6.12453 1.08067 6.11018 1.07969C5.99823 1.06762 5.88706 1.04926 5.77718 1.02469C5.34424 0.945361 4.90606 0.8979 4.46618 0.882688C4.2616 0.875241 4.05677 0.886286 3.85418 0.915688C3.76118 0.926688 3.76718 0.915688 3.76118 0.915688C3.66118 0.822688 3.81618 0.768688 3.81018 0.773688ZM6.51018 0.686688C6.51018 0.686688 6.49918 0.827688 6.41018 0.833688C6.41018 0.833688 6.25718 0.811688 6.31818 0.691688C6.35273 0.653609 6.39547 0.623863 6.44318 0.604688C6.44318 0.604688 6.55218 0.511688 6.53018 0.658688C6.53618 0.657688 6.50918 0.687688 6.50918 0.687688L6.51018 0.686688ZM2.89918 0.893687C3.11707 0.691692 3.36376 0.523186 3.63118 0.393687C3.80118 0.322687 3.74618 0.436688 3.74618 0.436688C3.74618 0.436688 3.48918 0.736687 3.49518 0.742687C3.43518 0.813687 3.36918 0.797688 3.38018 0.791688C3.32509 0.79945 3.27169 0.816348 3.22218 0.841687C3.11218 0.879687 2.99218 0.933687 2.98718 0.933687C2.84418 0.947687 2.90318 0.892688 2.89818 0.892688L2.89918 0.893687ZM2.76818 1.20469C2.92718 1.12869 2.82818 1.22669 2.82818 1.23269C2.78518 1.26469 2.79618 1.29769 2.79618 1.29769C2.63118 1.32469 2.76718 1.20369 2.76718 1.20369L2.76818 1.20469ZM2.08618 0.735687C2.08618 0.729687 2.12918 0.658687 2.15118 0.669687C2.15718 0.669687 2.12418 0.549688 2.22218 0.522688C2.22218 0.522688 2.29318 0.434688 2.31518 0.554688C2.34615 0.637338 2.38256 0.717848 2.42418 0.795688C2.43018 0.806688 2.39718 0.817687 2.45718 0.860687C2.47028 0.867015 2.48184 0.876126 2.49106 0.887383C2.50027 0.89864 2.50692 0.911773 2.51054 0.925864C2.51416 0.939956 2.51466 0.954668 2.512 0.968972C2.50935 0.983277 2.50361 0.996831 2.49518 1.00869C2.50118 1.00869 2.41918 1.16669 2.44118 1.25469L2.64118 1.21069C2.64118 1.21069 2.75018 1.17769 2.67418 1.28669C2.65266 1.31346 2.62517 1.33482 2.59391 1.34906C2.56265 1.3633 2.5285 1.37002 2.49418 1.36869C2.464 1.37054 2.43523 1.38212 2.41218 1.40169C2.41218 1.40169 2.33018 1.42869 2.33018 1.34169C2.31565 1.23731 2.32488 1.131 2.35718 1.03069C2.34618 1.03069 2.39518 1.01369 2.35718 0.964688C2.36318 0.964688 2.27018 0.806688 2.24218 0.833688C2.25318 0.844688 2.18218 0.888687 2.20418 0.933687C2.21018 0.933687 2.28118 0.977688 2.18218 0.982688C2.14333 0.955545 2.11339 0.917509 2.09613 0.873375C2.07886 0.829241 2.07505 0.780984 2.08518 0.734688L2.08618 0.735687ZM1.22218 2.12769C1.22218 2.12769 1.22218 2.02769 1.28718 2.00769C1.28718 2.00769 1.31918 2.03669 1.30418 1.94169C1.32056 1.87167 1.35872 1.80865 1.41318 1.76169C1.57912 1.639 1.75431 1.52934 1.93718 1.43369C1.93718 1.43369 2.02418 1.38969 2.05718 1.40669L2.09118 1.36569L2.04618 1.28769L2.05718 1.11769C2.05718 1.11769 2.10118 1.03069 2.12318 1.12869C2.15051 1.20257 2.15051 1.2838 2.12318 1.35769C2.12318 1.35769 2.09018 1.35769 2.08518 1.41869C2.08518 1.40769 2.10718 1.45169 2.04718 1.48969C1.87018 1.55822 1.70591 1.6559 1.56118 1.77869C1.52789 1.80434 1.49077 1.82459 1.45118 1.83869C1.42548 1.85544 1.4034 1.87717 1.38622 1.90258C1.36905 1.928 1.35713 1.9566 1.35118 1.98669L1.31818 2.00269L1.33418 2.03569C1.34921 2.05052 1.35855 2.07017 1.36056 2.09119C1.36257 2.11221 1.35713 2.13327 1.34518 2.15069C1.31259 2.24475 1.26274 2.33191 1.19818 2.40769C1.18718 2.41269 1.12118 2.41769 1.15918 2.30769L1.22218 2.12769ZM0.348176 3.67269C0.348176 3.67269 0.375176 3.63469 0.370176 3.62869C0.529492 3.40314 0.677023 3.16949 0.812176 2.92869L0.877176 2.85269C0.888068 2.83295 0.901151 2.8145 0.916176 2.79769C0.943176 2.74369 0.965176 2.81469 0.965176 2.81969C0.972078 2.8575 0.964203 2.89651 0.943176 2.92869C0.927176 2.95669 0.812176 3.10969 0.812176 3.10969L0.757176 3.17469C0.705415 3.29059 0.638132 3.39892 0.557176 3.49669L0.490176 3.58769C0.419176 3.64769 0.419176 3.68769 0.419176 3.68769L0.359176 3.78069L0.321176 3.74269L0.348176 3.67269ZM6.50818 5.94469C6.48118 5.97269 6.36618 5.93369 6.36618 5.93369C6.36618 5.93369 6.27418 5.93969 6.27418 5.92869C6.08577 5.90028 5.89405 5.90197 5.70618 5.93369C5.57531 5.95102 5.4439 5.96403 5.31218 5.97269C5.25749 5.97944 5.20311 5.98845 5.14918 5.99969C5.13218 6.03769 4.94918 6.02669 4.94918 6.02669C4.82918 6.02669 4.80218 5.90169 4.79718 5.89569C4.79118 5.77069 4.74218 5.75369 4.74218 5.74869C4.69953 5.66943 4.67527 5.5816 4.67118 5.49169C4.67118 5.39169 4.70418 5.39169 4.70418 5.39169C4.72434 5.3558 4.73885 5.31701 4.74718 5.27669C4.7863 5.16576 4.81018 5.05004 4.81818 4.93269L4.83518 4.84569C4.89018 4.59969 4.92818 4.33269 4.92818 4.32669C4.97118 4.22669 5.06418 4.43569 5.06418 4.43569C5.12327 4.53576 5.20347 4.62175 5.29918 4.68769L5.37018 4.74169L5.43018 4.79669C5.50718 4.86769 5.44618 4.93269 5.43618 4.93269C5.43183 4.93402 5.42785 4.93632 5.42453 4.93941C5.4212 4.94251 5.41862 4.94632 5.41699 4.95056C5.41535 4.95479 5.4147 4.95935 5.41508 4.96387C5.41545 4.9684 5.41686 4.97278 5.41918 4.97669L5.39218 5.02069C5.38618 5.06369 5.35918 5.06369 5.35418 5.06969C5.34588 5.07203 5.33882 5.07752 5.33452 5.085C5.33022 5.09248 5.32902 5.10134 5.33118 5.10969C5.30418 5.15169 5.29318 5.18469 5.28818 5.18469L5.26118 5.22369C5.25583 5.26006 5.24849 5.29612 5.23918 5.33169C5.23367 5.3869 5.24413 5.44254 5.2693 5.49199C5.29447 5.54145 5.33329 5.58264 5.38118 5.61069C5.39957 5.62507 5.42177 5.63377 5.44504 5.63572C5.4683 5.63768 5.49164 5.6328 5.51218 5.62169H6.00318C6.00318 5.62169 6.04118 5.62669 6.04118 5.63269C6.09018 5.66469 6.16618 5.58269 6.16618 5.58869C6.22118 5.53969 6.26618 5.54969 6.25918 5.55569C6.28382 5.54936 6.30995 5.55266 6.33225 5.56492C6.35454 5.57718 6.37133 5.59748 6.37918 5.62169C6.43418 5.65369 6.47918 5.80169 6.48918 5.81269C6.51018 5.82369 6.56018 5.88369 6.54918 5.87769C6.58518 5.93369 6.51918 5.93369 6.50818 5.94469ZM6.05618 5.38769C6.01318 5.44869 5.75618 5.44969 5.75618 5.44969L5.47718 5.42869C5.46125 5.42594 5.44605 5.42001 5.43247 5.41125C5.4189 5.40248 5.40723 5.39107 5.39818 5.37769C5.38755 5.35001 5.38755 5.31937 5.39818 5.29169V5.27469V5.28769C5.43805 5.16791 5.50957 5.06114 5.60518 4.97869C5.66718 4.92769 5.71118 4.96269 5.71518 4.96669C5.77018 5.02169 5.85318 5.10869 5.92618 5.18469C5.99918 5.26069 6.04018 5.30369 6.05918 5.32069C6.07818 5.36669 6.06418 5.38669 6.05918 5.39369L6.05618 5.38769ZM9.31618 6.85869C9.31618 6.85269 9.36518 6.85869 9.36518 6.85869L9.42018 6.86969C9.42018 6.86969 9.46418 6.91869 9.40918 6.94669L9.34918 6.93569C9.34918 6.93569 9.23418 6.91169 9.31618 6.86269V6.85869ZM9.10918 7.14769C9.07618 7.21369 9.15818 7.21869 9.15818 7.21869H9.42018L9.42518 7.18069L9.46918 7.15369C9.47292 7.13372 9.48129 7.1149 9.49362 7.09875C9.50595 7.0826 9.5219 7.06956 9.54018 7.06069C9.58918 7.01169 9.51318 6.96069 9.48018 6.96769L9.44218 6.91869C9.44218 6.91869 9.50218 6.88569 9.50218 6.89169C9.55433 6.89746 9.60368 6.91831 9.64418 6.95169C9.65264 6.95544 9.66011 6.96109 9.66603 6.96821C9.67194 6.97533 9.67612 6.98372 9.67825 6.99273C9.68038 7.00173 9.6804 7.01111 9.67831 7.02012C9.67621 7.02914 9.67206 7.03754 9.66618 7.04469C9.65518 7.09369 9.61118 7.09369 9.60618 7.09869C9.57318 7.14269 9.57818 7.15869 9.57818 7.15869L9.54018 7.16969L9.52918 7.21369C9.48883 7.26296 9.4409 7.30549 9.38718 7.33969C9.38718 7.33969 9.35418 7.37169 9.35418 7.36669C9.29418 7.32869 9.21818 7.38869 9.21818 7.38269C9.17001 7.39165 9.12055 7.39097 9.07266 7.38067C9.02476 7.37037 8.97939 7.35066 8.93918 7.32269L8.87418 7.25169L8.82518 7.23569L8.78618 7.20269L8.71518 7.16969C8.71518 7.16969 8.68318 7.16469 8.68318 7.16969C8.62417 7.14526 8.56103 7.13236 8.49718 7.13169C8.42018 7.12069 8.48018 7.06069 8.48018 7.06069C8.54618 7.03869 8.51918 7.02269 8.51318 7.02269C8.54226 6.98001 8.58187 6.94557 8.62818 6.92269H8.67218C8.69221 6.89676 8.71831 6.87616 8.74818 6.86269C8.74818 6.86269 8.80818 6.82969 8.80318 6.84069C8.85218 6.82469 8.85718 6.79669 8.86318 6.80269C8.89018 6.75369 8.92818 6.77469 8.92818 6.77469L9.01618 6.78669C9.02225 6.78736 9.02809 6.78941 9.03325 6.79268C9.0384 6.79596 9.04274 6.80038 9.04593 6.80559C9.04911 6.8108 9.05106 6.81668 9.05163 6.82276C9.05219 6.82885 9.05135 6.83498 9.04918 6.84069C9.04918 6.87369 8.98818 6.85669 8.98818 6.85669L8.93418 6.86769L8.89618 6.88969L8.84118 6.95569C8.79218 7.01069 8.84618 7.00469 8.84618 7.00469C8.94618 7.04269 8.99418 7.08669 8.98818 7.09169C9.01618 7.13069 9.09818 7.04869 9.09818 7.05369C9.16318 7.00969 9.11418 7.14669 9.10918 7.15169V7.14769ZM11.6092 5.49869C11.3724 5.64855 11.1903 5.87094 11.0902 6.13269C11.0492 6.24741 10.9923 6.3558 10.9212 6.45469C10.8742 6.46316 10.8261 6.46316 10.7792 6.45469C10.6669 6.45253 10.5552 6.43778 10.4462 6.41069C10.4462 6.41069 10.1782 6.35069 10.0362 6.33469C10.0362 6.32869 9.77418 6.33469 9.92718 6.26969C10.101 6.24751 10.2759 6.23449 10.4512 6.23069C10.4981 6.23166 10.5445 6.22125 10.5864 6.20035C10.6284 6.17945 10.6647 6.14868 10.6922 6.11069C10.9279 5.83389 11.2152 5.60564 11.5382 5.43869C11.5382 5.43869 11.8032 5.34469 11.6102 5.50269L11.6092 5.49869ZM19.6222 1.93269C19.4511 2.14365 19.2344 2.31314 18.9885 2.42848C18.7426 2.54382 18.4738 2.60201 18.2022 2.59869C17.6207 2.55584 17.0456 2.44954 16.4872 2.28169C16.0942 2.20569 15.8972 2.70769 15.8972 2.69669C15.8317 2.82343 15.7305 2.9282 15.606 2.99805C15.4816 3.06789 15.3395 3.09975 15.1972 3.08969C14.854 3.05735 14.5079 3.07588 14.1702 3.14469C13.8642 3.21069 13.4062 4.10569 13.3952 4.10569C13.2014 4.4489 12.9106 4.72722 12.5592 4.90569C12.3022 5.03669 11.5922 5.31569 11.5922 5.31569C11.5618 5.33635 11.5279 5.35127 11.4922 5.35969C11.1565 5.55473 10.8509 5.79761 10.5852 6.08069L10.5582 6.11269L10.4382 6.12369L10.3782 6.15069L10.3282 6.14569C10.2828 6.14426 10.2373 6.14593 10.1922 6.15069C10.1212 6.16169 9.91418 6.18969 9.91418 6.18969L9.46618 6.28269L9.41118 6.30969C9.28066 6.41342 9.13267 6.493 8.97418 6.54469C8.90218 6.57702 8.83728 6.62323 8.78318 6.68069C8.78318 6.68069 8.68318 6.75769 8.68318 6.76269C8.60618 6.83369 8.61118 6.78969 8.61118 6.78969L8.50218 6.86069L8.49118 6.89969C8.40918 6.99969 8.35518 6.99969 8.34918 6.99169C8.19491 7.03357 8.05405 7.11451 7.94018 7.22669C7.90218 7.29269 7.85218 7.28769 7.85218 7.28769C7.85218 7.28769 7.55218 7.28769 7.55218 7.29769C7.44853 7.31541 7.34767 7.34668 7.25218 7.39069C7.18118 7.42369 7.15218 7.42369 7.15218 7.41769C7.10318 7.41769 7.04318 7.41769 7.03218 7.40769C6.96118 7.36869 6.73718 7.42369 6.73718 7.42369C6.73718 7.42369 6.55218 7.42369 6.53718 7.41769C6.46018 7.41769 6.54818 7.29269 6.54818 7.29269L6.58018 7.28169L6.60818 7.24869C6.63222 7.21494 6.6597 7.18377 6.69018 7.15569L6.72818 7.11769C6.77139 7.09337 6.82066 7.08192 6.87018 7.08469C6.97918 7.08469 6.94118 7.12869 6.94118 7.13369C6.93018 7.17269 6.82118 7.17269 6.82118 7.16669C6.79742 7.16689 6.77463 7.17608 6.75738 7.19241C6.74012 7.20873 6.72969 7.23098 6.72818 7.25469C6.69518 7.30869 6.75018 7.29769 6.75018 7.29769H6.95018C7.05918 7.29269 7.08118 7.31469 7.08118 7.31469C7.20618 7.34769 7.23418 7.28769 7.23918 7.28769C7.28818 7.21669 7.31618 7.21669 7.31618 7.22169C7.41618 7.17269 7.30518 7.17769 7.30518 7.17269C7.26618 7.17269 7.26118 7.16169 7.25618 7.15569C7.22318 7.11769 7.21718 7.14469 7.21218 7.14469C7.18951 7.13735 7.17651 7.12902 7.17318 7.11969L7.15718 7.13969C7.15718 7.13969 7.09618 7.17769 7.08018 7.13969C7.06918 7.14469 7.03118 7.10669 7.12918 7.07969C7.12918 7.07969 7.16518 7.07969 7.17518 7.09569C7.18831 7.07653 7.20672 7.06159 7.22818 7.05269C7.31739 6.99437 7.39844 6.92442 7.46918 6.84469C7.62447 6.69486 7.81341 6.58444 8.02018 6.52269C8.08618 6.46269 8.18418 6.39169 8.18418 6.39169L8.29318 6.35269L8.35918 6.30369L8.44118 6.27169C8.46698 6.23999 8.50188 6.21695 8.54118 6.20569C8.61718 6.15669 8.65018 6.14569 8.65018 6.15069C8.70382 6.12464 8.75502 6.09385 8.80318 6.05869C8.97218 5.99769 9.19118 5.89469 9.19118 5.89469C9.21758 5.88048 9.2446 5.86747 9.27218 5.85569C9.34699 5.81555 9.41243 5.75999 9.46418 5.69269C9.53708 5.6152 9.62668 5.55535 9.72618 5.51769C9.79118 5.51169 9.78618 5.47969 9.79118 5.47969C9.79231 5.45466 9.80065 5.43048 9.8152 5.41008C9.82974 5.38968 9.84988 5.37391 9.87318 5.36469L9.88418 5.32669L9.94418 5.27169L9.97218 5.22769L10.1082 5.02769L10.1252 4.97869C10.1256 4.927 10.1326 4.87557 10.1462 4.82569C10.1857 4.76099 10.21 4.68815 10.2172 4.61269L10.2342 4.55269C10.2502 4.47669 10.2232 4.45969 10.2232 4.45969L10.2282 4.41069L10.2232 4.35069C10.2543 4.30982 10.2715 4.26004 10.2722 4.20869C10.3063 4.10629 10.3101 3.99621 10.2832 3.89169L10.2722 3.82069C10.2942 3.73369 10.2722 3.71169 10.2722 3.70569C10.2772 3.66269 10.0432 3.64569 10.0432 3.64569L9.99918 3.64069C9.99918 3.64069 9.94418 3.66769 9.93918 3.66769C9.80818 3.71169 9.86218 3.87569 9.86218 3.88669C9.86218 3.95169 9.81918 3.94069 9.81318 3.94069C9.76418 3.94669 9.77518 3.96869 9.76418 3.96269C9.74496 3.97672 9.72268 3.98597 9.69918 3.98969C9.65279 3.99745 9.60701 4.00848 9.56218 4.02269L9.50718 4.04469L9.46418 4.04969C9.44676 4.05798 9.42823 4.0637 9.40918 4.06669C9.3397 4.06225 9.27038 4.0775 9.20918 4.11069C9.20918 4.11069 9.15418 4.12669 9.14918 4.12669C9.09765 4.11863 9.04492 4.12415 8.99618 4.14269C8.75958 4.22216 8.5189 4.28892 8.27518 4.34269C8.16071 4.37282 8.0434 4.39092 7.92518 4.39669C7.77818 4.41869 7.82518 4.39169 7.81618 4.38569C7.77131 4.36643 7.723 4.3565 7.67418 4.3565C7.62535 4.3565 7.57704 4.36643 7.53218 4.38569C7.46118 4.42369 7.38418 4.48569 7.38418 4.48569C7.34118 4.50169 7.33518 4.46969 7.33018 4.46969C7.28118 4.42569 7.33018 4.38169 7.33018 4.36969C7.35718 4.30469 7.30818 4.30469 7.30818 4.30469C7.28177 4.29521 7.25417 4.28949 7.22618 4.28769C7.20418 4.29869 7.17718 4.29369 7.16618 4.29869C7.08418 4.29869 7.13918 4.34769 7.13318 4.34269C7.15018 4.44269 7.11118 4.41869 7.11718 4.40769C7.08418 4.40769 7.09518 4.47869 7.09518 4.47869C7.09518 4.54969 7.07318 4.62069 7.06218 4.62069C7.02418 4.65969 7.05118 4.69769 7.05118 4.69169C7.01318 4.77369 7.12818 4.79169 7.12818 4.80169C7.14738 4.80998 7.1635 4.8241 7.17426 4.84204C7.18503 4.85997 7.18989 4.88084 7.18818 4.90169C7.23718 5.07569 7.33018 5.31069 7.33518 5.32169C7.4052 5.44098 7.4431 5.57638 7.44518 5.71469C7.44518 5.71469 7.46618 5.79169 7.47718 5.79669C7.57858 5.86061 7.66766 5.94224 7.74018 6.03769C7.85418 6.13069 7.69618 6.08069 7.69018 6.08069C7.6762 6.0803 7.66251 6.07667 7.65019 6.07007C7.63787 6.06348 7.62725 6.0541 7.61918 6.04269C7.61918 6.04269 7.53218 5.97669 7.51918 5.97169C7.49718 5.93869 7.47018 5.92769 7.46518 5.93369C7.41905 5.8947 7.36469 5.86667 7.30618 5.85169L7.25218 5.79669C7.22201 5.76821 7.20408 5.72913 7.20218 5.68769C7.19042 5.55118 7.16118 5.41675 7.11518 5.28769C7.11518 5.28769 7.13118 5.25469 7.06618 5.17269C7.05173 5.14006 7.03905 5.10667 7.02818 5.07269C7.01272 5.03057 6.9926 4.99032 6.96818 4.95269C6.95911 4.93357 6.94805 4.91547 6.93518 4.89869C6.89356 4.87014 6.86426 4.82692 6.85318 4.77769L6.82618 4.70669C6.82018 4.71269 6.77618 4.67969 6.81518 4.61969C6.82618 4.61969 6.84218 4.63569 6.84218 4.49969C6.84218 4.49469 6.80918 4.41769 6.97818 4.29969C6.97818 4.29969 7.11518 4.23469 7.07818 4.13069C7.07818 4.13669 6.99618 3.92369 7.20418 3.91269C7.25562 3.91254 7.30624 3.92563 7.35118 3.95069C7.41854 3.99002 7.49293 4.01583 7.57018 4.02669C7.70357 4.06322 7.84228 4.07641 7.98018 4.06569C7.97418 4.05969 7.98018 4.03769 8.08918 4.04369C8.31146 4.05119 8.53376 4.02899 8.75018 3.97769C8.79236 3.95647 8.83896 3.9455 8.88618 3.94569C8.97389 3.90742 9.06994 3.89228 9.16518 3.90169C9.2153 3.89869 9.26306 3.87937 9.30118 3.84669C9.29618 3.84669 9.30118 3.80269 9.41018 3.77569C9.44008 3.76984 9.46813 3.75688 9.49198 3.73791C9.51582 3.71894 9.53475 3.69451 9.54718 3.66669C9.55218 3.66069 9.76518 3.39869 9.97818 3.40969C10.0959 3.40644 10.2124 3.43292 10.3172 3.48669C10.349 3.49884 10.3838 3.50115 10.4169 3.4933C10.4501 3.48546 10.4802 3.46782 10.5032 3.44269C10.5032 3.45369 10.8412 3.13669 10.7872 3.40969C10.7872 3.39869 10.7212 3.48669 10.6562 3.78169C10.6562 3.77069 10.6502 3.78169 10.6502 3.78169C10.5738 4.04119 10.54 4.31137 10.5502 4.58169C10.555 4.6568 10.564 4.73159 10.5772 4.80569C10.5909 4.84432 10.5941 4.88591 10.5863 4.92618C10.5786 4.96644 10.5603 5.0039 10.5332 5.03469C10.4345 5.12269 10.3398 5.21369 10.2492 5.30769C10.2492 5.30769 9.98718 5.61369 9.90018 5.72869C9.89418 5.73369 9.79018 5.82869 9.98218 5.90369C10.0701 5.92095 10.1599 5.92633 10.2492 5.91969C10.3015 5.90897 10.3549 5.90527 10.4082 5.90869C10.4082 5.90869 10.6082 5.90369 10.6372 5.80869C10.6372 5.81369 10.6812 5.76469 10.7372 5.72069C10.7372 5.71569 10.9992 5.42569 11.0262 5.36569C11.0527 5.34032 11.0717 5.30815 11.0812 5.27269C11.0812 5.27269 11.0372 5.15869 11.2452 5.03269C11.3597 4.98138 11.4709 4.92293 11.5782 4.85769C11.5782 4.85269 11.7142 4.75769 11.7142 4.75769C11.7964 4.67268 11.8946 4.60471 12.0032 4.55769C12.0032 4.54669 12.0852 4.50269 12.1232 4.44269C12.1232 4.45369 12.2162 4.26869 12.2982 4.36069C12.3092 4.36069 12.3202 4.41069 12.2762 4.49769C12.2822 4.49769 12.2052 4.59769 12.3202 4.53069C12.3498 4.51941 12.3788 4.50672 12.4072 4.49269L12.4672 4.44869C12.4953 4.39065 12.5389 4.34151 12.5932 4.30669C12.5932 4.30069 12.6582 4.24069 12.7182 4.15869C12.782 4.08579 12.8337 4.00306 12.8712 3.91369C12.8712 3.91369 13.0242 3.15969 13.5162 3.15969C13.5162 3.15969 13.8112 3.17069 13.8872 3.04969C13.8872 3.04969 13.8982 2.94969 14.2582 2.92969C14.2582 2.91869 14.8702 2.91869 15.3942 2.94069C15.4844 2.95242 15.5761 2.93423 15.655 2.88889C15.7339 2.84355 15.7958 2.77358 15.8312 2.68969C15.8422 2.67869 16.0062 2.02369 16.4102 2.08969C16.5155 2.09132 16.6195 2.11375 16.7162 2.15569C17.2231 2.32451 17.755 2.40567 18.2892 2.39569C18.504 2.3984 18.7171 2.35611 18.9146 2.27155C19.1122 2.18699 19.2898 2.06202 19.4362 1.90469C19.8522 1.28169 19.3362 1.55469 19.3492 1.54369C18.8371 1.66344 18.3062 1.67841 17.7882 1.58769C17.2434 1.50448 16.7035 1.39131 16.1712 1.24869C16.1177 1.24191 16.064 1.23657 16.0102 1.23269C15.8945 1.21694 15.7767 1.23037 15.6676 1.27177C15.5584 1.31316 15.4613 1.3812 15.3852 1.46969C15.2104 1.76141 15.1057 2.08967 15.0792 2.42869C15.0682 2.43969 15.0352 2.76769 14.4892 2.65769C13.8607 2.50621 13.2745 2.21499 12.7742 1.80569C12.4129 1.56886 12.0138 1.39537 11.5942 1.29269C11.4259 1.24942 11.2494 1.24942 11.0812 1.29269C10.7053 1.36153 10.3546 1.52929 10.0652 1.77869C10.0702 1.77869 9.97818 1.78969 9.96518 1.83869C9.96518 1.83869 9.90418 1.82469 9.88318 1.85469C9.88318 1.86069 9.87218 1.89369 9.73018 1.85469C9.53232 1.81828 9.33131 1.80186 9.13018 1.80569C8.7908 1.84214 8.44943 1.85684 8.10818 1.84969C8.11418 1.84969 7.56818 1.81669 7.42618 1.80069C7.30922 1.77072 7.18547 1.78239 7.07618 1.83369C7.08118 1.83869 6.96118 1.92669 6.88518 1.88769C6.86696 1.87696 6.85122 1.86251 6.83899 1.84528C6.82675 1.82804 6.8183 1.80842 6.81418 1.78769C6.81418 1.77769 6.75418 1.67369 6.41418 1.69569C6.40318 1.69569 6.29418 1.68469 6.29418 1.68469C6.29418 1.68469 6.24418 1.69569 6.15218 1.60769C5.94732 1.45008 5.70012 1.35713 5.44218 1.34069C5.44218 1.34569 4.78618 1.22069 4.42618 1.19869L4.17118 1.18769C4.08723 1.18618 4.00424 1.16958 3.92618 1.13869C3.82537 1.1142 3.71994 1.11627 3.62018 1.14469C3.56727 1.16295 3.51207 1.17372 3.45618 1.17669L3.39018 1.18769C3.3429 1.2166 3.28707 1.22826 3.23218 1.22069C3.21017 1.22055 3.18868 1.22733 3.17073 1.24007C3.15279 1.25281 3.1393 1.27087 3.13218 1.29169C3.13218 1.30169 3.10418 1.32369 3.14318 1.40569C3.21224 1.57016 3.24924 1.74632 3.25218 1.92469C3.26947 1.93607 3.28585 1.94877 3.30118 1.96269C3.30118 1.96269 3.40118 2.02269 3.41618 2.08369C3.41618 2.08869 3.43218 2.12169 3.53018 2.15469C3.57152 2.16993 3.60668 2.19841 3.63018 2.23569C3.63018 2.24169 3.65718 2.30169 3.80418 2.37269C3.80418 2.37269 4.57518 2.83169 4.62418 2.88569C4.62418 2.88569 4.78818 2.99569 4.95718 3.11569C4.96818 3.10969 5.00618 3.17569 5.01718 3.28969C5.00519 3.35445 5.01285 3.42132 5.03918 3.48169C5.03918 3.47569 5.12618 3.81969 5.15918 3.66669C5.15918 3.65569 5.10418 3.42669 5.24618 3.35569L5.28518 3.32869C5.29746 3.31006 5.31434 3.29491 5.33418 3.28469C5.34518 3.27369 5.40518 3.25169 5.36118 3.15869C5.35086 3.13569 5.33492 3.11567 5.31482 3.10046C5.29472 3.08526 5.27111 3.07536 5.24618 3.07169C5.16691 3.05415 5.09621 3.00961 5.04618 2.94569C5.01643 2.92228 4.98538 2.90058 4.95318 2.88069C4.95318 2.88069 4.69118 2.66169 4.68618 2.66169C4.27227 2.42554 3.87167 2.16682 3.48618 1.88669C3.18018 1.65669 3.47518 1.79869 3.47518 1.79869C3.47518 1.79869 3.79118 1.94169 3.81318 1.96269C4.07573 2.03095 4.33172 2.12231 4.57818 2.23569C4.88899 2.39753 5.18194 2.59159 5.45218 2.81469C5.61618 3.01469 5.63718 2.94569 5.63718 2.95669C5.65351 2.95093 5.67107 2.94952 5.68812 2.95258C5.70517 2.95565 5.72113 2.96309 5.73443 2.97418C5.74774 2.98527 5.75794 2.99963 5.76403 3.01584C5.77012 3.03206 5.77189 3.04958 5.76918 3.06669C5.76866 3.10816 5.77736 3.14924 5.79465 3.18694C5.81195 3.22464 5.8374 3.25803 5.86918 3.28469L5.68318 3.51369C5.68318 3.51369 5.61818 3.51369 5.60718 3.50269C5.54118 3.34969 5.43218 3.63469 5.42118 3.63469C5.38997 3.6773 5.3688 3.72643 5.35928 3.77838C5.34975 3.83034 5.35211 3.88377 5.36618 3.93469C5.39918 4.12069 5.22418 3.89169 5.21318 3.89169C5.43218 4.43769 5.50818 4.22969 5.49718 4.22969C5.61818 4.12969 5.92318 4.51369 5.93418 4.52469C6.17576 4.77186 6.3987 5.03658 6.60118 5.31669C6.68218 5.45869 6.83018 5.74869 6.83018 5.75369C6.85718 5.86869 6.88518 5.84169 6.88518 5.84169C6.88518 5.84169 6.97218 5.91769 6.97218 5.92269C7.14118 5.98269 7.10818 5.99369 7.12518 5.99969C7.17537 6.05295 7.2433 6.08602 7.31618 6.09269C7.45318 6.05969 7.46418 6.09269 7.46418 6.10869C7.47476 6.13265 7.49044 6.15401 7.51013 6.17128C7.52982 6.18855 7.55304 6.20132 7.57818 6.20869C7.64418 6.26269 7.58918 6.25769 7.58918 6.25769L7.72018 6.40469C7.76418 6.47069 7.70918 6.48669 7.69818 6.48169C7.67985 6.48561 7.66258 6.49345 7.64756 6.50467C7.63255 6.51589 7.62013 6.53022 7.61118 6.54669C7.56718 6.59569 7.54518 6.56369 7.54518 6.56369L7.44518 6.50369C7.44518 6.50369 7.41218 6.46469 7.40618 6.45969C7.3817 6.42586 7.34848 6.39933 7.31008 6.38295C7.27167 6.36656 7.22953 6.36094 7.18818 6.36669C7.04618 6.36669 7.03018 6.31769 7.01318 6.30669C6.95318 6.24169 6.95918 6.24169 6.94818 6.24169C6.86919 6.17434 6.79927 6.09703 6.74018 6.01169C6.69283 5.94691 6.66917 5.86783 6.67318 5.78769C6.61806 5.74166 6.57166 5.68611 6.53618 5.62369C6.53618 5.62369 6.44918 5.57969 6.44318 5.57469C6.36718 5.54769 6.35618 5.44369 6.35618 5.44369L6.32318 5.41069C6.1674 5.17347 5.97384 4.96336 5.75018 4.78869C5.67318 4.71169 5.62418 4.71169 5.62418 4.71169L5.52418 4.68969C5.52418 4.68969 5.43118 4.62969 5.42418 4.62969C5.32418 4.56969 5.28218 4.52069 5.28818 4.52069C5.14003 4.38386 5.02099 4.21857 4.93818 4.03469C4.93818 4.03469 4.92218 3.98569 4.92218 3.97969C4.90634 3.9632 4.89422 3.94352 4.88663 3.92196C4.87904 3.9004 4.87616 3.87746 4.87818 3.85469C4.92102 3.72685 4.92102 3.58853 4.87818 3.46069C4.71076 3.30157 4.52554 3.16231 4.32618 3.04569C4.03618 2.83269 3.32618 2.44569 3.32618 2.44569L3.29418 2.42369C3.2998 2.37652 3.2998 2.32885 3.29418 2.28169C3.27218 2.08169 3.23418 2.25969 3.23418 2.25969C3.18805 2.46718 3.07702 2.65458 2.91718 2.79469C2.85489 2.88033 2.76959 2.94656 2.67118 2.98569C2.53252 3.08684 2.3825 3.17141 2.22418 3.23769C2.05491 3.33854 1.89071 3.44768 1.73218 3.56469C1.62375 3.68378 1.51272 3.80047 1.39918 3.91469C1.34255 3.95138 1.29251 3.99735 1.25118 4.05069C1.24815 4.07139 1.23871 4.09063 1.22418 4.10569C1.2136 4.16618 1.19511 4.22502 1.16918 4.28069C1.17518 4.46569 1.09318 4.44969 1.09318 4.44969C1.09318 4.44969 0.956176 4.48269 0.951176 4.48269C0.885176 4.49869 0.896176 4.47169 0.885176 4.47169C0.853176 4.37869 0.776176 4.48769 0.771176 4.49369C0.728858 4.4907 0.686773 4.48502 0.645176 4.47669C0.600869 4.47505 0.556599 4.4808 0.514176 4.49369C0.49155 4.49078 0.470756 4.47973 0.455669 4.46262C0.440582 4.44551 0.432232 4.4235 0.432176 4.40069C0.439901 4.36211 0.436075 4.3221 0.421176 4.28569C0.377176 4.20969 0.410176 4.18569 0.410176 4.18569C0.419419 4.17538 0.425397 4.16256 0.427355 4.14886C0.429313 4.13515 0.427163 4.12117 0.421176 4.10869C0.356176 3.97269 0.334176 4.02169 0.334176 4.03269C0.334176 4.09769 0.274176 4.03769 0.268176 4.03769C0.148176 3.96669 0.317176 3.90169 0.317176 3.90169C0.3884 3.85452 0.472856 3.83139 0.558176 3.83569C0.541176 3.78169 0.634176 3.74269 0.634176 3.73569C0.601176 3.68069 0.814176 3.43569 0.814176 3.43569C0.853176 3.39269 0.869176 3.35469 0.864176 3.34869C0.881941 3.30023 0.911907 3.25718 0.951176 3.22369C0.987117 3.17065 1.02049 3.11592 1.05118 3.05969C1.12218 2.97169 1.38918 2.50769 1.38918 2.51269C1.43318 2.46369 1.37318 2.40369 1.36818 2.39869C1.29618 2.26169 1.40018 2.26169 1.39518 2.26169C1.48218 2.26169 1.46018 2.15269 1.46018 2.15269C1.56018 1.93469 1.72318 1.96169 1.71718 1.96669C1.85418 2.01569 1.81718 1.96669 1.81718 1.96669C1.96518 1.97269 1.98718 1.97269 1.98718 1.98369C2.06918 2.08369 2.11218 2.02169 2.11218 2.01569C2.16218 1.98369 2.21218 2.07669 2.21218 2.07669C2.21218 2.07669 2.21218 2.10869 2.27218 2.13669C2.28857 2.13789 2.30432 2.14356 2.31771 2.15308C2.33111 2.1626 2.34165 2.17561 2.34818 2.19069C2.3856 2.20678 2.422 2.22515 2.45718 2.24569C2.45718 2.24569 2.55018 2.23969 2.55018 2.27869C2.59407 2.27183 2.63895 2.28145 2.67618 2.30569C2.68118 2.30569 2.67018 2.33269 2.74118 2.32769C2.7948 2.30311 2.85236 2.28821 2.91118 2.28369C2.91118 2.28369 3.10218 2.15269 3.12418 2.07069C3.14789 1.93485 3.14586 1.79577 3.11818 1.66069C3.08486 1.52365 3.02947 1.39294 2.95418 1.27369L2.96418 1.18769L2.99718 1.16569C3.03217 1.15635 3.06396 1.13769 3.08918 1.11169C3.08918 1.11169 3.08918 1.09469 3.13918 1.08969C3.13918 1.08369 3.63918 1.08369 3.63918 1.08369L3.72718 1.07269C3.79659 1.07767 3.86636 1.07228 3.93418 1.05669C3.94018 1.05669 3.96118 1.02369 4.09818 1.02969C4.09818 1.02969 4.48018 1.04069 4.59818 1.05169C5.15087 1.08956 5.69814 1.18473 6.23118 1.33569C6.26535 1.3412 6.29887 1.35025 6.33118 1.36269H6.45118C6.45118 1.36269 6.41818 1.34069 6.50618 1.34069C6.50018 1.34069 6.63118 1.35169 6.55518 1.25869C6.56018 1.26469 6.42418 1.18269 6.45518 1.12269C6.44918 1.12269 6.45518 1.06769 6.45518 1.06769L6.49318 1.03469C6.54232 1.01482 6.5898 0.991081 6.63518 0.963688C6.63518 0.963688 6.65718 0.909688 6.72818 0.925688C6.88445 0.859926 7.05018 0.81942 7.21918 0.805688C7.22518 0.805688 7.33418 0.767687 7.28518 0.876687C7.2682 0.901217 7.25692 0.929236 7.25218 0.958688C7.25218 0.958688 7.23018 0.991688 7.16518 1.01269C7.06941 1.027 6.97573 1.05286 6.88618 1.08969C6.89118 1.08969 6.85318 1.06769 6.83718 1.11169C6.83218 1.11169 6.72218 1.15469 6.73718 1.21169L6.75318 1.25569L6.75818 1.30469C6.75818 1.30469 6.77518 1.40469 6.85818 1.39769C7.1641 1.46405 7.47413 1.50982 7.78618 1.53469C8.26304 1.56009 8.74105 1.55441 9.21718 1.51769C9.62513 1.48534 10.0304 1.4252 10.4302 1.33769C10.7855 1.25981 11.1485 1.22257 11.5122 1.22669C12.001 1.30041 12.4694 1.47402 12.8882 1.73669C13.3262 2.0492 13.8137 2.28583 14.3302 2.43669C14.3302 2.42569 14.7012 2.52369 14.7012 2.52369C14.7012 2.52369 15.0502 2.61169 15.0182 2.31669C15.0182 2.32569 15.0022 1.63669 15.3072 1.37769C15.5079 1.21022 15.7629 1.122 16.0242 1.12969C16.0242 1.12969 16.3072 1.14069 16.3072 1.14769C16.8972 1.30069 17.4542 1.39869 17.4872 1.40969C18.0981 1.58071 18.747 1.55764 19.3442 1.34369C19.7152 1.15869 19.7262 1.33269 19.7262 1.33269C19.7603 1.53987 19.724 1.75251 19.6232 1.93669L19.6222 1.93269ZM7.68818 5.80869C7.62318 5.81969 7.61218 5.79769 7.61218 5.79769C7.59018 5.76469 7.56818 5.73769 7.56818 5.73769C7.48118 5.66069 7.52518 5.60069 7.51918 5.60069C7.52831 5.5506 7.52058 5.4989 7.49718 5.45369C7.45418 5.38769 7.50818 5.37069 7.50318 5.37169C7.56594 5.36833 7.62592 5.34467 7.67408 5.30427C7.72224 5.26387 7.75596 5.20892 7.77018 5.14769C7.78841 5.10735 7.82065 5.07499 7.86092 5.0566C7.90118 5.03822 7.94675 5.03505 7.98918 5.04769H8.25718C8.31873 5.03978 8.38114 5.04146 8.44218 5.05269C8.54218 5.07469 8.42018 5.21069 8.42018 5.22269C8.39906 5.26891 8.36888 5.31042 8.33144 5.34477C8.29399 5.37913 8.25004 5.40562 8.20218 5.42269C8.11418 5.43969 8.10218 5.44469 8.10218 5.44469C8.03281 5.49551 7.97517 5.56065 7.93318 5.63569C7.86718 5.76169 7.83318 5.73569 7.84518 5.73569C7.78018 5.73569 7.76318 5.75769 7.76318 5.76369C7.68318 5.78769 7.68818 5.80869 7.68818 5.80869ZM7.80918 5.88469H7.82418C7.86318 5.86269 7.93218 5.82969 7.93218 5.82969L7.95318 5.81969C8.02068 5.77047 8.07608 5.70652 8.11518 5.63269L8.12718 5.61369C8.16918 5.53069 8.31918 5.49269 8.31918 5.49269C8.43441 5.42728 8.52609 5.3272 8.58118 5.20669C8.65518 5.11669 8.68018 5.04802 8.65618 5.00069C8.64562 4.98399 8.63077 4.97045 8.61317 4.96147C8.59557 4.9525 8.57589 4.94843 8.55618 4.94969L7.86418 4.94369C7.77618 4.94369 7.68918 5.01069 7.60518 5.15369L7.60018 5.16269C7.55818 5.23869 7.51118 5.21969 7.51018 5.21969C7.43818 5.18769 7.41018 4.95769 7.42118 4.80369C7.42118 4.80369 7.39918 4.73269 7.44618 4.70369C7.47872 4.6864 7.5154 4.67844 7.55218 4.68069H7.55918L7.78118 4.66669C7.90818 4.65769 7.97118 4.65369 8.00218 4.64769C8.40529 4.6055 8.80145 4.51243 9.18118 4.37069C9.38118 4.30269 9.54618 4.23869 9.65218 4.19669C9.75818 4.15469 9.81818 4.12969 9.84218 4.11569C9.85281 4.11069 9.86442 4.1081 9.87618 4.1081C9.88793 4.1081 9.89954 4.11069 9.91018 4.11569C9.95811 4.15382 9.99105 4.20765 10.0032 4.26769C10.0265 4.49105 9.99286 4.71668 9.90543 4.92354C9.818 5.1304 9.67962 5.31175 9.50318 5.45069C9.33367 5.53525 9.14363 5.56993 8.95518 5.55069C8.81991 5.54163 8.68513 5.57445 8.56918 5.64469C8.45018 5.72369 8.26918 5.82569 8.15218 5.89369C8.10474 5.91947 8.05837 5.94716 8.01318 5.97669C7.95318 6.00469 7.88718 5.95469 7.85118 5.92769L7.82418 5.90969C7.80318 5.90169 7.80318 5.88769 7.80918 5.88769V5.88469ZM8.60918 6.01069C8.48757 6.05057 8.37312 6.10965 8.27018 6.18569C8.27018 6.18569 8.19418 6.24569 8.18918 6.24569C8.09618 6.28369 8.06818 6.17469 8.06818 6.17469C8.03018 6.10369 8.06818 6.10369 8.06818 6.10369C8.06818 6.10369 8.14518 6.05469 8.15018 6.05469C8.21738 6.02573 8.27873 5.98472 8.33118 5.93369C8.36544 5.90219 8.40186 5.87312 8.44018 5.84669L8.54018 5.80869L8.66018 5.78169C8.68279 5.75334 8.71206 5.73101 8.74538 5.71671C8.7787 5.7024 8.81505 5.69656 8.85118 5.69969C8.94418 5.70469 8.93818 5.68269 8.93818 5.68869C8.99305 5.68381 9.04824 5.68348 9.10318 5.68769C9.18518 5.70969 9.22918 5.70469 9.22318 5.70969C9.39818 5.73169 9.22918 5.80269 9.22918 5.80269L8.90118 5.91769C8.90118 5.91769 8.78118 5.97169 8.77518 5.97169C8.71018 6.01069 8.72118 5.98869 8.72118 5.98869C8.68144 5.99365 8.64203 6.001 8.60318 6.01069H8.60918Z" fill="white"/>
</svg>
