<svg width="21" height="20" viewBox="0 0 21 20" fill="none" xmlns="http://www.w3.org/2000/svg">
<path d="M16.1767 17.461H18.3147C18.5028 17.4639 18.6888 17.4213 18.8568 17.3368C19.0248 17.2522 19.1698 17.1282 19.2795 16.9754C19.3891 16.8226 19.4602 16.6455 19.4865 16.4593C19.5128 16.2731 19.4937 16.0832 19.4307 15.906C18.8856 14.7391 18.0225 13.7496 16.9405 13.0509C15.8586 12.3522 14.6015 11.9728 13.3137 11.956M13.3137 9.197C13.795 9.19713 14.2715 9.10246 14.7162 8.91838C15.1608 8.73431 15.5649 8.46444 15.9052 8.12419C16.2455 7.78395 16.5155 7.37998 16.6997 6.93538C16.8839 6.49078 16.9787 6.01425 16.9787 5.533C16.98 5.05091 16.8862 4.5733 16.7026 4.12755C16.519 3.68179 16.2492 3.27665 15.9087 2.93534C15.5683 2.59403 15.1638 2.32327 14.7185 2.13857C14.2732 1.95387 13.7958 1.85887 13.3137 1.859M7.58872 9.312C8.69046 9.30935 9.74616 8.86976 10.5242 8.08968C11.3022 7.3096 11.739 6.25274 11.7387 5.151C11.7387 4.05009 11.3014 2.99426 10.5229 2.2158C9.74446 1.43734 8.68863 1 7.58772 1C6.48681 1 5.43098 1.43734 4.65252 2.2158C3.87406 2.99426 3.43672 4.05009 3.43672 5.151C3.43672 6.25274 3.87377 7.30949 4.65197 8.08939C5.43018 8.86928 6.48598 9.30862 7.58772 9.311M12.2737 18.654C12.626 18.6535 12.9712 18.5555 13.2712 18.3709C13.5711 18.1863 13.8142 17.9223 13.9733 17.608C14.1324 17.2938 14.2015 16.9416 14.1728 16.5906C14.1441 16.2395 14.0188 15.9032 13.8107 15.619C13.0818 14.6515 12.1435 13.8614 11.066 13.3079C9.98849 12.7544 8.79972 12.4519 7.58872 12.423C6.37763 12.452 5.18881 12.7547 4.1113 13.3084C3.03378 13.862 2.09549 14.6523 1.36672 15.62C1.15938 15.9042 1.03462 16.2403 1.00623 16.591C0.977834 16.9416 1.04691 17.2934 1.20583 17.6073C1.36474 17.9212 1.60732 18.185 1.90677 18.3698C2.20621 18.5545 2.55088 18.6528 2.90272 18.654H12.2737Z" stroke="black" stroke-width="1.5" stroke-linecap="round" stroke-linejoin="round"/>
</svg>
